<svg width="24" height="24" viewBox="0 0 24 24" fill="none" xmlns="http://www.w3.org/2000/svg">
<path d="M12 21.9995C17.5228 21.9995 22 17.5224 22 11.9995C22 6.47666 17.5228 1.99951 12 1.99951C6.47715 1.99951 2 6.47666 2 11.9995C2 17.5224 6.47715 21.9995 12 21.9995Z" stroke="black" stroke-width="1.25" stroke-linecap="round" stroke-linejoin="round"/>
<path d="M16.4436 17.0001V15.889C16.4436 15.2996 16.2095 14.7344 15.7927 14.3176C15.376 13.9009 14.8107 13.6667 14.2214 13.6667H9.77691C9.18754 13.6667 8.62231 13.9009 8.20556 14.3176C7.78881 14.7344 7.55469 15.2996 7.55469 15.889V17.0001" stroke="black" stroke-width="1.5" stroke-linecap="round" stroke-linejoin="round"/>
<path d="M11.9996 11.4444C13.2269 11.4444 14.2218 10.4495 14.2218 9.22222C14.2218 7.99492 13.2269 7 11.9996 7C10.7723 7 9.77734 7.99492 9.77734 9.22222C9.77734 10.4495 10.7723 11.4444 11.9996 11.4444Z" stroke="black" stroke-width="1.5" stroke-linecap="round" stroke-linejoin="round"/>
</svg>
