<svg width="24" height="24" viewBox="0 0 24 24" fill="none" xmlns="http://www.w3.org/2000/svg">
<path d="M3.33333 2.66699H21C21.7333 2.66699 22.3333 3.26699 22.3333 4.00033V20.0003C22.3333 20.7337 21.7333 21.3337 21 21.3337H3.33333C2.6 21.3337 2 20.7337 2 20.0003V4.00033C2 3.26699 2.6 2.66699 3.33333 2.66699Z" stroke="#837F84" stroke-width="1.5" stroke-linecap="round" stroke-linejoin="round"/>
<path d="M16.6693 7.33301L7.33594 16.6663" stroke="#837F84" stroke-width="2" stroke-linecap="round" stroke-linejoin="round"/>
<path d="M8.33464 10.0003C9.25511 10.0003 10.0013 9.25413 10.0013 8.33366C10.0013 7.41318 9.25511 6.66699 8.33464 6.66699C7.41416 6.66699 6.66797 7.41318 6.66797 8.33366C6.66797 9.25413 7.41416 10.0003 8.33464 10.0003Z" stroke="#837F84" stroke-width="2" stroke-linecap="round" stroke-linejoin="round"/>
<path d="M15.6667 17.3333C16.5871 17.3333 17.3333 16.5871 17.3333 15.6667C17.3333 14.7462 16.5871 14 15.6667 14C14.7462 14 14 14.7462 14 15.6667C14 16.5871 14.7462 17.3333 15.6667 17.3333Z" stroke="#837F84" stroke-width="2" stroke-linecap="round" stroke-linejoin="round"/>
</svg>
