<svg width="24" height="24" viewBox="0 0 24 24" fill="none" xmlns="http://www.w3.org/2000/svg">
<g clip-path="url(#clip0_2482_3359)">
<path d="M19.7885 16.2922C17.2273 20.7283 11.5549 22.2483 7.11872 19.687C5.02864 18.4803 3.5859 16.583 2.91234 14.4497M3.72385 7.01721C6.28506 2.58107 11.9575 1.06113 16.3937 3.62234C18.7923 5.00719 20.3383 7.30163 20.8477 9.81841M2.91234 14.4497L5.79341 15.7475M2.91234 14.4497L1.42054 17.2051M20.8477 9.81841L18.438 8.42717M20.8477 9.81841L22.5561 7.7306" stroke="#281E2B" stroke-width="1.25" stroke-linecap="round" stroke-linejoin="round"/>
<path d="M12 6V17.5" stroke="#281E2B" stroke-width="1.5" stroke-linecap="round" stroke-linejoin="round"/>
<path d="M14.6133 8.08984H10.6928C10.2076 8.08984 9.74225 8.2826 9.39914 8.62571C9.05604 8.96881 8.86328 9.43416 8.86328 9.91939C8.86328 10.4046 9.05604 10.87 9.39914 11.2131C9.74225 11.5562 10.2076 11.7489 10.6928 11.7489H13.3065C13.7917 11.7489 14.257 11.9417 14.6001 12.2848C14.9433 12.6279 15.136 13.0933 15.136 13.5785C15.136 14.0637 14.9433 14.5291 14.6001 14.8722C14.257 15.2153 13.7917 15.408 13.3065 15.408H8.86328" stroke="#281E2B" stroke-width="1.5" stroke-linecap="round" stroke-linejoin="round"/>
</g>
<defs>
<clipPath id="clip0_2482_3359">
<rect width="24" height="24" fill="white"/>
</clipPath>
</defs>
</svg>
