<svg width="24" height="24" viewBox="0 0 24 24" fill="none" xmlns="http://www.w3.org/2000/svg">
<path d="M3.5 19.5C2.96957 19.5 2.46086 19.2893 2.08579 18.9142C1.71071 18.5391 1.5 18.0304 1.5 17.5V6.5C1.5 5.96957 1.71071 5.46086 2.08579 5.08579C2.46086 4.71071 2.96957 4.5 3.5 4.5" stroke="#281E2B" stroke-width="1.25" stroke-linecap="round" stroke-linejoin="round"/>
<path d="M20.5 19.5C21.0304 19.5 21.5391 19.2893 21.9142 18.9142C22.2893 18.5391 22.5 18.0304 22.5 17.5V6.5C22.5 5.96957 22.2893 5.46086 21.9142 5.08579C21.5391 4.71071 21.0304 4.5 20.5 4.5" stroke="#281E2B" stroke-width="1.25" stroke-linecap="round" stroke-linejoin="round"/>
<path d="M16.5 1.75049H7.5C6.39543 1.75049 5.5 2.64592 5.5 3.75049V20.0004C5.5 21.1049 6.39543 22.0004 7.5 22.0004H16.5C17.6046 22.0004 18.5 21.1049 18.5 20.0004V3.75049C18.5 2.64592 17.6046 1.75049 16.5 1.75049Z" stroke="#281E2B" stroke-width="1.25" stroke-linecap="round" stroke-linejoin="round"/>
<path d="M12 6V17.5" stroke="#281E2B" stroke-width="1.5" stroke-linecap="round" stroke-linejoin="round"/>
<path d="M14.6133 8.09033H10.6928C10.2076 8.09033 9.74225 8.28309 9.39914 8.62619C9.05604 8.9693 8.86328 9.43465 8.86328 9.91988C8.86328 10.4051 9.05604 10.8705 9.39914 11.2136C9.74225 11.5567 10.2076 11.7494 10.6928 11.7494H13.3065C13.7917 11.7494 14.257 11.9422 14.6001 12.2853C14.9433 12.6284 15.136 13.0937 15.136 13.579C15.136 14.0642 14.9433 14.5295 14.6001 14.8727C14.257 15.2158 13.7917 15.4085 13.3065 15.4085H8.86328" stroke="#281E2B" stroke-width="1.5" stroke-linecap="round" stroke-linejoin="round"/>
</svg>
